# xmcd
#
# Track frame offsets: 
#        150
#        21110
#        34100
#        52747
#        68899
#
# Disc length: 1153 seconds
#
# Revision: 0
# Processed by: cddbd v1.5.2PL0 Copyright (c) Steve Scherf et al.
# Submitted via: ExactAudioCopy v1.3
#
DISCID=36047f05
DTITLE=zelek, joe - ways of the road [ep]
DYEAR=2015
DGENRE=Country
TTITLE0=ways of the road
TTITLE1=screw that town
TTITLE2=chasing a song
TTITLE3=keeping up with the jones
TTITLE4=put it in a bottle
EXTD=
EXTT0=
EXTT1=
EXTT2=
EXTT3=
EXTT4=
PLAYORDER=
